<svg width="32" height="32" viewBox="0 0 32 32" fill="none" xmlns="http://www.w3.org/2000/svg">
<rect width="32" height="32" rx="16" fill="#347DE7"/>
<path d="M24.4347 15.4399H23.9098V9.66594C23.9098 9.41565 23.7331 9.20008 23.4876 9.15114L12.9545 7.0515C12.9544 7.0515 12.9544 7.0515 12.9544 7.0515C12.8526 7.03127 12.747 7.04316 12.6581 7.07857L7.37404 9.17821C7.17419 9.25749 7.04297 9.45091 7.04297 9.66594V13.8652C7.04297 14.1551 7.27794 14.3901 7.56787 14.3901H10.7523C11.0422 14.3901 11.2772 14.1551 11.2772 13.8652V11.2407H12.327V19.6392H7.56787C7.27794 19.6392 7.04297 19.8742 7.04297 20.1641V24.4334C7.04297 24.7233 7.27794 24.9583 7.56787 24.9583H24.4347C24.7247 24.9583 24.9596 24.7233 24.9596 24.4334C24.9596 24.1435 24.7247 23.9085 24.4347 23.9085H16.5262V11.2407H22.86V15.4399H22.3351C22.0452 15.4399 21.8102 15.6749 21.8102 15.9649V18.0645C21.8102 18.3544 22.0452 18.5894 22.3351 18.5894H22.86V19.1143C22.86 19.4043 23.095 19.6392 23.3849 19.6392C23.6743 19.6392 23.9098 19.8748 23.9098 20.1641C23.9098 20.4535 23.6743 20.6891 23.3849 20.6891C23.0955 20.6891 22.86 20.4535 22.86 20.1641C22.86 19.8742 22.625 19.6392 22.3351 19.6392C22.0452 19.6392 21.8102 19.8742 21.8102 20.1641C21.8102 21.0324 22.5167 21.7389 23.3849 21.7389C24.2532 21.7389 24.9596 21.0324 24.9596 20.1641C24.9596 19.4798 24.5208 18.896 23.9098 18.6794V18.5894H24.4347C24.7247 18.5894 24.9596 18.3544 24.9596 18.0645V15.9649C24.9596 15.6749 24.7247 15.4399 24.4347 15.4399ZM8.09277 22.7887H12.327V23.9085H8.09277V22.7887ZM13.3768 14.4592V12.4663L14.9981 13.3783L13.3768 14.4592ZM15.4764 14.3211V16.5588L13.7982 15.4399L15.4764 14.3211ZM13.3768 16.4207L15.055 17.5396L13.3768 18.6584V16.4207ZM13.3768 20.62L15.0658 21.746L13.3768 22.9095V20.62ZM13.7982 19.6392L15.4764 18.5204V20.7581L13.7982 19.6392ZM13.3768 11.2617V11.2407H15.4764V12.4428L13.3768 11.2617ZM13.3768 10.1913V8.8336L14.734 10.1913H13.3768ZM10.2274 13.3403H8.09277V11.2407H10.2274V13.3403ZM8.09277 10.1913V10.0226L12.327 8.33972V10.1913H8.09277ZM12.327 20.6891V21.7389H8.09277V20.6891H12.327ZM13.7772 23.9085L15.4764 22.738V23.9085H13.7772ZM16.2188 10.1913L14.4475 8.41955L22.86 10.0969V10.1913H16.2188ZM23.9098 17.5396H22.86V16.4898H23.9098V17.5396Z" fill="white"/>
</svg>
