<svg width="32" height="32" viewBox="0 0 32 32" fill="none" xmlns="http://www.w3.org/2000/svg">
<rect width="32" height="32" rx="16" fill="#347DE7"/>
<path d="M23.3788 22.0821H23.7617C23.8061 22.0821 23.8502 22.0909 23.8912 22.1079C23.9323 22.1249 23.9696 22.1498 24.001 22.1813C24.0324 22.2127 24.0573 22.25 24.0743 22.2911C24.0913 22.3322 24.1 22.3762 24.1 22.4206M23.3788 22.0821L24 23.7617M23.3788 22.0821V14.5135V14.5134V22.0821ZM24.1 22.4206L24 22.4206H24.1V22.4206ZM24.1 22.4206V23.7616M24.1 23.7616L24 23.7617M24.1 23.7616V23.7617H24M24.1 23.7616C24.1 23.8061 24.0913 23.8501 24.0743 23.8912C24.0573 23.9322 24.0324 23.9695 24.001 24.001C23.9695 24.0324 23.9322 24.0573 23.8912 24.0743C23.8501 24.0913 23.8061 24.1 23.7616 24.1M24 23.7617L23.7617 24M23.7616 24.1L23.7617 24M23.7616 24.1H23.7617V24M23.7616 24.1H8.23836M23.7617 24H8.2383M8.23836 24.1L8.2383 24M8.23836 24.1H8.2383V24M8.23836 24.1C8.19392 24.1 8.14991 24.0913 8.10884 24.0743C8.10884 24.0743 8.10884 24.0743 8.10884 24.0743L8.14708 23.9819C8.11816 23.9699 8.09189 23.9524 8.06976 23.9302L7.99904 24.001L8.2383 24M8.96006 14.1751C8.91562 14.1751 8.87161 14.1838 8.83054 14.2008C8.78948 14.2178 8.75217 14.2428 8.72075 14.2742C8.68932 14.3056 8.6644 14.3429 8.64741 14.384C8.63042 14.425 8.62168 14.469 8.6217 14.5134C8.6217 14.5134 8.6217 14.5135 8.6217 14.5135L8.6217 22.0821H8.2383C8.14858 22.0821 8.06253 22.1178 7.99909 22.1812C7.93564 22.2447 7.9 22.3307 7.9 22.4204V23.7617C7.9 23.7617 7.9 23.7617 7.9 23.7617C7.89998 23.8061 7.90872 23.8501 7.9257 23.8912C7.9427 23.9322 7.96762 23.9695 7.99905 24.001H7.99905L8.96006 14.1751ZM8.96006 14.1751H11.0824M8.96006 14.1751H11.0824M11.0824 14.1751V9.35808V9.35803H11.1824L11.0824 14.1751ZM20.8176 9.35803H20.9176V9.35808V14.1751L20.6705 9.13783C20.6994 9.1498 20.7257 9.16735 20.7478 9.18948C20.7699 9.21162 20.7875 9.23789 20.7995 9.26681C20.8114 9.29573 20.8176 9.32673 20.8176 9.35803ZM20.8176 9.35803V14.1751V9.35803ZM19.8895 9.01973H20.5792H19.8895ZM19.8895 9.01973V8.23835V8.2383H19.7895M19.8895 9.01973L19.7904 7.99905M19.7895 8.2383C19.7895 8.207 19.7833 8.176 19.7714 8.14708C19.7594 8.11816 19.7419 8.09189 19.7197 8.06976M19.7895 8.2383V9.01973V8.2383ZM19.7197 8.06976L19.7904 7.99905M19.7197 8.06976L19.7904 7.99904C19.7904 7.99905 19.7904 7.99905 19.7904 7.99905M19.7197 8.06976C19.6976 8.04762 19.6713 8.03007 19.6424 8.0181C19.6135 8.00613 19.5825 7.99998 19.5512 8M19.7904 7.99905V7.99905C19.759 7.96762 19.7217 7.9427 19.6806 7.9257C19.6396 7.90872 19.5956 7.89998 19.5512 7.9V8M19.5512 8L19.5511 7.9L11.4207 9.01973H11.4208H12.1105V8.23836M19.5512 8H12.4488L12.4489 7.9C12.4489 7.9 12.4488 7.9 12.4488 7.9C12.4044 7.89998 12.3604 7.90871 12.3194 7.9257C12.2783 7.9427 12.241 7.96762 12.2096 7.99905C12.1781 8.03047 12.1532 8.06778 12.1362 8.10884C12.1192 8.1499 12.1105 8.19391 12.1105 8.23836M12.1105 8.23836V8.2383H12.2105L12.1105 8.23836ZM23.1318 14.2932L23.17 14.2008C23.1289 14.1838 23.0849 14.1751 23.0405 14.1751H23.0405L23.1318 14.2932ZM22.7022 14.8516V22.0821H20.9176V14.8517L22.7022 14.8516ZM12.7871 8.5766H19.2129V9.01973H12.7871V8.5766ZM11.759 9.69632H20.241V22.0821H11.759V9.69632ZM9.29775 14.8517H11.0824V22.0821H9.29775V14.8517ZM23.4233 22.7587L23.4229 23.4234H8.5766V22.7587H23.4233Z" fill="white" stroke="white" stroke-width="0.2"/>
</svg>
