<svg width="32" height="32" viewBox="0 0 32 32" fill="none" xmlns="http://www.w3.org/2000/svg">
<rect width="32" height="32" rx="16" fill="#347DE7"/>
<path d="M20.4199 11.333H21.4024V12.333H20.4199V11.333Z" fill="white"/>
<path d="M20.4199 13.3336H21.4024V14.3336H20.4199V13.3336Z" fill="white"/>
<path d="M20.4199 15.3333H21.4024V16.3333H20.4199V15.3333Z" fill="white"/>
<path d="M20.4199 17.3331H21.4024V18.3331H20.4199V17.3331Z" fill="white"/>
<path d="M20.4199 21.333H21.4024V22.333H20.4199V21.333Z" fill="white"/>
<path d="M20.4199 19.3337H21.4024V20.3337H20.4199V19.3337Z" fill="white"/>
<path d="M12.5605 11.333H13.543V12.333H12.5605V11.333Z" fill="white"/>
<path d="M12.5605 13.3336H13.543V14.3336H12.5605V13.3336Z" fill="white"/>
<path d="M12.5605 15.3333H13.543V16.3333H12.5605V15.3333Z" fill="white"/>
<path d="M12.5605 17.3331H13.543V18.3331H12.5605V17.3331Z" fill="white"/>
<path d="M12.5605 21.333H13.543V22.333H12.5605V21.333Z" fill="white"/>
<path d="M12.5605 19.3337H13.543V20.3337H12.5605V19.3337Z" fill="white"/>
<path d="M10.5957 11.333H11.5782V12.333H10.5957V11.333Z" fill="white"/>
<path d="M10.5957 13.3336H11.5782V14.3336H10.5957V13.3336Z" fill="white"/>
<path d="M10.5957 15.3333H11.5782V16.3333H10.5957V15.3333Z" fill="white"/>
<path d="M10.5957 17.3331H11.5782V18.3331H10.5957V17.3331Z" fill="white"/>
<path d="M10.5957 21.333H11.5782V22.333H10.5957V21.333Z" fill="white"/>
<path d="M10.5957 19.3337H11.5782V20.3337H10.5957V19.3337Z" fill="white"/>
<path d="M14.5254 11.333H15.5078V12.333H14.5254V11.333Z" fill="white"/>
<path d="M14.5254 13.3336H15.5078V14.3336H14.5254V13.3336Z" fill="white"/>
<path d="M14.5254 15.3333H15.5078V16.3333H14.5254V15.3333Z" fill="white"/>
<path d="M14.5254 17.3331H15.5078V18.3331H14.5254V17.3331Z" fill="white"/>
<path d="M14.5254 21.333H15.5078V22.333H14.5254V21.333Z" fill="white"/>
<path d="M14.5254 19.3337H15.5078V20.3337H14.5254V19.3337Z" fill="white"/>
<path d="M24.8415 24.3333H24.3502V10.8333C24.3502 10.0333 23.7608 9.33333 23.073 9.03333L18.4555 7.43333V5.83333C18.4555 5.63333 18.3572 5.53333 18.259 5.43333C18.1608 5.33333 17.9643 5.33333 17.866 5.33333L9.02391 8.03333C8.23795 8.33333 7.64847 9.03333 7.64847 9.83333V24.3333H7.15724C6.86251 24.3333 6.66602 24.5333 6.66602 24.8333C6.66602 25.1333 6.86251 25.3333 7.15724 25.3333H24.8415C25.1362 25.3333 25.3327 25.1333 25.3327 24.8333C25.3327 24.5333 25.1362 24.3333 24.8415 24.3333ZM22.7783 10.0333C23.073 10.1333 23.3678 10.5333 23.3678 10.8333V24.3333H18.4555V8.53333L22.7783 10.0333ZM8.63093 9.83333C8.63093 9.53333 8.92566 9.13333 9.2204 9.03333L17.473 6.53333V24.3333H8.63093V9.83333Z" fill="white"/>
</svg>
