<svg width="32" height="32" viewBox="0 0 32 32" fill="none" xmlns="http://www.w3.org/2000/svg">
<rect width="32" height="32" rx="16" fill="#347DE7"/>
<g clip-path="url(#clip0_669_2830)">
<mask id="path-2-outside-1_669_2830" maskUnits="userSpaceOnUse" x="5.40039" y="7" width="21" height="18" fill="black">
<rect fill="white" x="5.40039" y="7" width="21" height="18"/>
<path d="M25.1626 20.3455H22.4942V17.8273H25.1626C25.404 17.8273 25.6004 17.6289 25.6004 17.3851V14.6149C25.6004 14.3711 25.404 14.1727 25.1626 14.1727H22.4941V11.5286C22.4941 11.2847 22.2977 11.0863 22.0563 11.0863H19.3892V8.44221C19.3892 8.19838 19.1929 8 18.9515 8H17.4863C17.3309 8 17.2051 8.1272 17.2051 8.2841C17.2051 8.441 17.3309 8.5682 17.4863 8.5682H18.8267V11.0864H16.0004H13.1769V8.5682H16.3519C16.5073 8.5682 16.6332 8.441 16.6332 8.2841C16.6332 8.1272 16.5073 8 16.3519 8H12.8957H12.8955H6.8397C6.59832 8 6.40193 8.19838 6.40193 8.44221V11.3407C6.40095 11.3505 6.40039 11.3604 6.40039 11.3705V14.4569C6.40039 14.4669 6.40095 14.4768 6.40197 14.4866V17.5135C6.40095 17.5232 6.40039 17.5332 6.40039 17.5432V18.5491C6.40039 18.706 6.52632 18.8332 6.68164 18.8332C6.83696 18.8332 6.96289 18.706 6.96289 18.5491V17.8273H9.50662V20.3455H6.96289V19.6895C6.96289 19.5326 6.83696 19.4054 6.68164 19.4054C6.52632 19.4054 6.40039 19.5326 6.40039 19.6895V20.6296C6.40039 20.6396 6.40095 20.6496 6.40197 20.6593V23.5578C6.40197 23.8017 6.59835 24 6.83974 24H12.8955H12.8957H19.1066H19.108H25.1626C25.404 24 25.6004 23.8016 25.6004 23.5578V20.7877C25.6004 20.5438 25.404 20.3455 25.1626 20.3455ZM22.2129 14.7409H25.0379V17.2591H22.2129H19.3892V14.7409H22.2129ZM16.2816 11.6546H19.108H21.9316V14.1728H19.108H19.1066H16.2816V11.6546ZM18.8254 14.7409V17.2591H16.0006H16.0004H13.1769V14.7409H16.0004H18.8254ZM15.7191 11.6546V14.1728H12.8957H12.8955H10.0691V11.6546H15.7191ZM6.96446 8.5682H12.6143V11.0864H9.78791H6.96446V8.5682ZM6.96289 11.6545H9.50662V14.1727H6.96289V11.6545ZM6.96446 17.2591V14.7409H9.78791H12.6143V17.2591H9.78806H9.78787H6.96446ZM12.6143 23.4318H6.96446V20.9137H9.78791H9.7881H12.6143V23.4318ZM12.8957 20.3455H12.8955H10.0693V17.8273H12.8955H12.8957H15.7191V20.3455H12.8957ZM18.8254 23.4318H13.1769V20.9137H16.0004H16.0006H18.8254V23.4318ZM19.108 20.3455H19.1066H16.2818V17.8273H19.1066H19.108H21.9316V20.3455H19.108ZM25.0379 23.4318H19.3892V20.9137H22.2129H25.0379V23.4318Z"/>
</mask>
<path d="M25.1626 20.3455H22.4942V17.8273H25.1626C25.404 17.8273 25.6004 17.6289 25.6004 17.3851V14.6149C25.6004 14.3711 25.404 14.1727 25.1626 14.1727H22.4941V11.5286C22.4941 11.2847 22.2977 11.0863 22.0563 11.0863H19.3892V8.44221C19.3892 8.19838 19.1929 8 18.9515 8H17.4863C17.3309 8 17.2051 8.1272 17.2051 8.2841C17.2051 8.441 17.3309 8.5682 17.4863 8.5682H18.8267V11.0864H16.0004H13.1769V8.5682H16.3519C16.5073 8.5682 16.6332 8.441 16.6332 8.2841C16.6332 8.1272 16.5073 8 16.3519 8H12.8957H12.8955H6.8397C6.59832 8 6.40193 8.19838 6.40193 8.44221V11.3407C6.40095 11.3505 6.40039 11.3604 6.40039 11.3705V14.4569C6.40039 14.4669 6.40095 14.4768 6.40197 14.4866V17.5135C6.40095 17.5232 6.40039 17.5332 6.40039 17.5432V18.5491C6.40039 18.706 6.52632 18.8332 6.68164 18.8332C6.83696 18.8332 6.96289 18.706 6.96289 18.5491V17.8273H9.50662V20.3455H6.96289V19.6895C6.96289 19.5326 6.83696 19.4054 6.68164 19.4054C6.52632 19.4054 6.40039 19.5326 6.40039 19.6895V20.6296C6.40039 20.6396 6.40095 20.6496 6.40197 20.6593V23.5578C6.40197 23.8017 6.59835 24 6.83974 24H12.8955H12.8957H19.1066H19.108H25.1626C25.404 24 25.6004 23.8016 25.6004 23.5578V20.7877C25.6004 20.5438 25.404 20.3455 25.1626 20.3455ZM22.2129 14.7409H25.0379V17.2591H22.2129H19.3892V14.7409H22.2129ZM16.2816 11.6546H19.108H21.9316V14.1728H19.108H19.1066H16.2816V11.6546ZM18.8254 14.7409V17.2591H16.0006H16.0004H13.1769V14.7409H16.0004H18.8254ZM15.7191 11.6546V14.1728H12.8957H12.8955H10.0691V11.6546H15.7191ZM6.96446 8.5682H12.6143V11.0864H9.78791H6.96446V8.5682ZM6.96289 11.6545H9.50662V14.1727H6.96289V11.6545ZM6.96446 17.2591V14.7409H9.78791H12.6143V17.2591H9.78806H9.78787H6.96446ZM12.6143 23.4318H6.96446V20.9137H9.78791H9.7881H12.6143V23.4318ZM12.8957 20.3455H12.8955H10.0693V17.8273H12.8955H12.8957H15.7191V20.3455H12.8957ZM18.8254 23.4318H13.1769V20.9137H16.0004H16.0006H18.8254V23.4318ZM19.108 20.3455H19.1066H16.2818V17.8273H19.1066H19.108H21.9316V20.3455H19.108ZM25.0379 23.4318H19.3892V20.9137H22.2129H25.0379V23.4318Z" fill="white"/>
<path d="M25.1626 20.3455H22.4942V17.8273H25.1626C25.404 17.8273 25.6004 17.6289 25.6004 17.3851V14.6149C25.6004 14.3711 25.404 14.1727 25.1626 14.1727H22.4941V11.5286C22.4941 11.2847 22.2977 11.0863 22.0563 11.0863H19.3892V8.44221C19.3892 8.19838 19.1929 8 18.9515 8H17.4863C17.3309 8 17.2051 8.1272 17.2051 8.2841C17.2051 8.441 17.3309 8.5682 17.4863 8.5682H18.8267V11.0864H16.0004H13.1769V8.5682H16.3519C16.5073 8.5682 16.6332 8.441 16.6332 8.2841C16.6332 8.1272 16.5073 8 16.3519 8H12.8957H12.8955H6.8397C6.59832 8 6.40193 8.19838 6.40193 8.44221V11.3407C6.40095 11.3505 6.40039 11.3604 6.40039 11.3705V14.4569C6.40039 14.4669 6.40095 14.4768 6.40197 14.4866V17.5135C6.40095 17.5232 6.40039 17.5332 6.40039 17.5432V18.5491C6.40039 18.706 6.52632 18.8332 6.68164 18.8332C6.83696 18.8332 6.96289 18.706 6.96289 18.5491V17.8273H9.50662V20.3455H6.96289V19.6895C6.96289 19.5326 6.83696 19.4054 6.68164 19.4054C6.52632 19.4054 6.40039 19.5326 6.40039 19.6895V20.6296C6.40039 20.6396 6.40095 20.6496 6.40197 20.6593V23.5578C6.40197 23.8017 6.59835 24 6.83974 24H12.8955H12.8957H19.1066H19.108H25.1626C25.404 24 25.6004 23.8016 25.6004 23.5578V20.7877C25.6004 20.5438 25.404 20.3455 25.1626 20.3455ZM22.2129 14.7409H25.0379V17.2591H22.2129H19.3892V14.7409H22.2129ZM16.2816 11.6546H19.108H21.9316V14.1728H19.108H19.1066H16.2816V11.6546ZM18.8254 14.7409V17.2591H16.0006H16.0004H13.1769V14.7409H16.0004H18.8254ZM15.7191 11.6546V14.1728H12.8957H12.8955H10.0691V11.6546H15.7191ZM6.96446 8.5682H12.6143V11.0864H9.78791H6.96446V8.5682ZM6.96289 11.6545H9.50662V14.1727H6.96289V11.6545ZM6.96446 17.2591V14.7409H9.78791H12.6143V17.2591H9.78806H9.78787H6.96446ZM12.6143 23.4318H6.96446V20.9137H9.78791H9.7881H12.6143V23.4318ZM12.8957 20.3455H12.8955H10.0693V17.8273H12.8955H12.8957H15.7191V20.3455H12.8957ZM18.8254 23.4318H13.1769V20.9137H16.0004H16.0006H18.8254V23.4318ZM19.108 20.3455H19.1066H16.2818V17.8273H19.1066H19.108H21.9316V20.3455H19.108ZM25.0379 23.4318H19.3892V20.9137H22.2129H25.0379V23.4318Z" stroke="white" stroke-width="0.4" mask="url(#path-2-outside-1_669_2830)"/>
</g>
<defs>
<clipPath id="clip0_669_2830">
<rect width="19.2" height="16" fill="white" transform="translate(6.40039 8)"/>
</clipPath>
</defs>
</svg>
