<svg width="32" height="32" viewBox="0 0 32 32" fill="none" xmlns="http://www.w3.org/2000/svg">
<rect width="32" height="32" rx="16" fill="#347DE7"/>
<g clip-path="url(#clip0_669_5193)">
<rect x="7.16602" y="7.16666" width="17.6667" height="17.6667" rx="1.5" stroke="white"/>
<path d="M16.1484 10.5553H13.1484C12.7234 10.5553 12.3984 10.8527 12.3984 11.2416V21.5357C12.3984 21.9246 12.7234 22.222 13.1484 22.222C13.5734 22.222 13.8984 21.9246 13.8984 21.5357V18.3331H16.1484C18.4984 18.3331 20.3984 16.5945 20.3984 14.4442C20.3984 12.2939 18.4984 10.5553 16.1484 10.5553ZM16.1484 16.9606H13.8984V11.9279H16.1484C17.6734 11.9279 18.8984 13.0488 18.8984 14.4442C18.8984 15.8396 17.6734 16.9606 16.1484 16.9606Z" fill="white"/>
</g>
<defs>
<clipPath id="clip0_669_5193">
<rect width="18.6667" height="18.6667" fill="white" transform="translate(6.66602 6.66666)"/>
</clipPath>
</defs>
</svg>
