<svg width="32" height="32" viewBox="0 0 32 32" fill="none" xmlns="http://www.w3.org/2000/svg">
<rect width="32" height="32" rx="16" fill="#347DE7"/>
<path d="M21.4334 23.4917L21.4332 23.4915L16.2587 20.3524L15.9994 20.1951L15.74 20.3524L10.5655 23.4915L10.5631 23.4929C10.5561 23.4972 10.5462 23.5004 10.5338 23.5C10.5213 23.4995 10.5099 23.4955 10.5011 23.4893L10.5009 23.4892C10.4933 23.4838 10.4903 23.4785 10.489 23.4752C10.4878 23.472 10.4878 23.4696 10.4885 23.4669L10.4887 23.466L11.9691 17.7248L12.0487 17.4161L11.8024 17.2137L7.17906 13.4135L7.17907 13.4135L7.17672 13.4116C7.17015 13.4063 7.16768 13.4013 7.1667 13.3979C7.16574 13.3947 7.16579 13.392 7.16687 13.3887L7.16699 13.3884C7.16918 13.3818 7.18105 13.365 7.2088 13.3631L7.20885 13.3631L13.2432 12.9546L13.5522 12.9337L13.6711 12.6477L15.9467 7.17589C15.9568 7.17169 15.975 7.16667 15.9993 7.16667C16.0237 7.16667 16.0419 7.17169 16.052 7.17589L18.3276 12.6477L18.4465 12.9337L18.7555 12.9546L24.7899 13.3631L24.7899 13.3631C24.8176 13.365 24.8295 13.3818 24.8317 13.3884L24.8318 13.3887C24.8329 13.392 24.833 13.3947 24.832 13.3979C24.831 13.4013 24.8285 13.4063 24.822 13.4116L24.8196 13.4135L20.1962 17.2138L19.95 17.4162L20.0296 17.7249L21.51 23.4661L21.5102 23.4669C21.5106 23.4683 21.5107 23.4697 21.5106 23.471C21.5106 23.4724 21.5103 23.4737 21.5097 23.4753C21.5084 23.4786 21.5054 23.4839 21.4978 23.4892L21.4974 23.4895C21.4884 23.4958 21.4778 23.4994 21.4658 23.4997C21.4531 23.5001 21.4417 23.4967 21.4334 23.4917Z" stroke="white"/>
</svg>
