<svg width="32" height="32" viewBox="0 0 32 32" fill="none" xmlns="http://www.w3.org/2000/svg">
<rect width="32" height="32" rx="16" fill="#347DE7"/>
<g clip-path="url(#clip0_669_498)">
<path d="M19.0392 11.3242H10.6522C10.5305 11.3242 10.4138 11.3722 10.3277 11.4575C10.2417 11.5428 10.1934 11.6585 10.1934 11.7791C10.1934 11.8997 10.2417 12.0154 10.3277 12.1007C10.4138 12.186 10.5305 12.234 10.6522 12.234H19.0392C19.1609 12.234 19.2776 12.186 19.3636 12.1007C19.4497 12.0154 19.498 11.8997 19.498 11.7791C19.498 11.6585 19.4497 11.5428 19.3636 11.4575C19.2776 11.3722 19.1609 11.3242 19.0392 11.3242Z" fill="white"/>
<path d="M26.1652 13.786L26.1694 13.7818L25.8332 13.4486L26.2003 13.0847C26.4083 12.8781 26.5251 12.5981 26.5251 12.3061C26.5251 12.0142 26.4083 11.7342 26.2003 11.5275L26.0659 11.3942C25.8574 11.1881 25.5749 11.0723 25.2804 11.0723C24.986 11.0723 24.7035 11.1881 24.495 11.3942L24.1216 11.7646C24.0108 11.6876 23.8762 11.6518 23.7414 11.6636C23.6066 11.6753 23.4803 11.7337 23.3847 11.8286L15.9061 19.2425C15.5235 19.6226 15.2355 20.0858 15.0649 20.5955L14.4898 22.3196C14.3382 22.7247 14.7736 23.1531 15.1796 23.0034L16.9188 22.4333C17.4328 22.2642 17.9001 21.9787 18.2835 21.5994L25.5134 14.4321C25.6815 14.6495 25.7641 14.9201 25.7459 15.1934C25.7277 15.4667 25.6099 15.7242 25.4145 15.9179L22.3333 18.9724C22.2903 19.0146 22.2562 19.0648 22.2329 19.12C22.2095 19.1753 22.1974 19.2346 22.1973 19.2945C22.1971 19.3545 22.2089 19.4138 22.2319 19.4692C22.255 19.5246 22.2889 19.575 22.3316 19.6173C22.3744 19.6597 22.4251 19.6933 22.481 19.7162C22.5369 19.739 22.5968 19.7507 22.6572 19.7506C22.7177 19.7504 22.7775 19.7384 22.8333 19.7153C22.889 19.6921 22.9396 19.6583 22.9821 19.6157L26.0634 16.5611C26.4309 16.1969 26.6457 15.7082 26.6646 15.1934C26.6835 14.6785 26.505 14.1757 26.1651 13.786H26.1652ZM16.6307 21.5696L15.5931 21.9099L15.9362 20.8812C15.9964 20.7012 16.0769 20.5286 16.176 20.3664L17.1501 21.3321C16.9865 21.4303 16.8123 21.51 16.6307 21.5696ZM17.8517 20.7411L16.7719 19.6707L20.7328 15.7441L21.8125 16.8145L17.8517 20.7411ZM22.4614 16.1714L21.3817 15.1008L21.6967 14.7886L22.7765 15.859L22.4614 16.1714ZM23.4252 15.2158L22.3453 14.1453L23.7919 12.7115L24.8718 13.7818L23.4252 15.2158ZM25.5515 12.4417L25.1844 12.8056L24.7769 12.4015L25.1439 12.0377C25.1802 12.0019 25.2293 11.9817 25.2805 11.9817C25.3317 11.9817 25.3808 12.0019 25.417 12.0377L25.5515 12.171C25.5876 12.2069 25.6079 12.2556 25.6079 12.3063C25.6079 12.3571 25.5876 12.4058 25.5515 12.4417Z" fill="white"/>
<path d="M21.2321 20.4433C21.1104 20.4433 20.9937 20.4912 20.9077 20.5765C20.8216 20.6618 20.7733 20.7774 20.7733 20.8981V24.4236H8.91765V10.0507H10.7131C10.8988 10.0505 11.0769 9.97726 11.2082 9.84708C11.3395 9.7169 11.4134 9.54041 11.4136 9.35631V7.57634H20.7732V12.4704C20.7726 12.5305 20.7841 12.5901 20.8069 12.6457C20.8297 12.7014 20.8634 12.752 20.9061 12.7947C20.9488 12.8374 20.9995 12.8712 21.0554 12.8943C21.1114 12.9175 21.1714 12.9294 21.232 12.9294C21.2926 12.9294 21.3526 12.9175 21.4085 12.8943C21.4644 12.8712 21.5152 12.8374 21.5579 12.7947C21.6005 12.752 21.6342 12.7014 21.657 12.6457C21.6799 12.5901 21.6913 12.5305 21.6908 12.4704V7.36102C21.6906 7.17695 21.6167 7.00048 21.4854 6.87031C21.3542 6.74015 21.1762 6.66691 20.9905 6.66667H10.9548C10.889 6.66665 10.8241 6.68067 10.7643 6.7078C10.7045 6.73492 10.6513 6.7745 10.6084 6.82384C10.5987 6.83208 10.5892 6.84069 10.58 6.84977L8.18473 9.22433C8.17557 9.23341 8.16689 9.24278 8.15858 9.25241C8.1088 9.29499 8.06887 9.34771 8.0415 9.40698C8.01414 9.46624 7.99998 9.53066 8 9.59584V24.639C8.00021 24.8231 8.07408 24.9996 8.20539 25.1297C8.33671 25.2599 8.51474 25.3331 8.70044 25.3333H20.9905C21.1762 25.3331 21.3542 25.2599 21.4855 25.1297C21.6168 24.9996 21.6907 24.8231 21.6909 24.639V20.8981C21.6909 20.7774 21.6426 20.6618 21.5565 20.5765C21.4705 20.4912 21.3538 20.4433 21.2321 20.4433ZM10.4959 8.2198V9.14099H9.56649L10.4959 8.2198Z" fill="white"/>
<path d="M19.4982 14.2258C19.4982 14.1052 19.4499 13.9895 19.3638 13.9042C19.2778 13.8189 19.1611 13.771 19.0394 13.771H10.6524C10.5918 13.7704 10.5317 13.7818 10.4755 13.8044C10.4194 13.827 10.3683 13.8605 10.3253 13.9028C10.2823 13.945 10.2481 13.9954 10.2248 14.0508C10.2015 14.1063 10.1895 14.1657 10.1895 14.2258C10.1895 14.2859 10.2015 14.3454 10.2248 14.4008C10.2481 14.4563 10.2823 14.5066 10.3253 14.5489C10.3683 14.5912 10.4194 14.6246 10.4755 14.6472C10.5317 14.6698 10.5918 14.6812 10.6524 14.6807H19.0394C19.1611 14.6807 19.2778 14.6327 19.3638 14.5474C19.4499 14.4621 19.4982 14.3464 19.4982 14.2258Z" fill="white"/>
<path d="M15.7058 16.6725C15.7058 16.5519 15.6574 16.4362 15.5714 16.3509C15.4854 16.2656 15.3687 16.2177 15.247 16.2177H10.6522C10.5305 16.2177 10.4138 16.2656 10.3277 16.3509C10.2417 16.4362 10.1934 16.5519 10.1934 16.6725C10.1934 16.7931 10.2417 16.9088 10.3277 16.9941C10.4138 17.0794 10.5305 17.1274 10.6522 17.1274H15.247C15.3687 17.1274 15.4854 17.0794 15.5714 16.9941C15.6574 16.9088 15.7058 16.7931 15.7058 16.6725Z" fill="white"/>
<path d="M13.6886 18.6644H10.6522C10.5305 18.6644 10.4138 18.7123 10.3277 18.7976C10.2417 18.8829 10.1934 18.9986 10.1934 19.1193C10.1934 19.2399 10.2417 19.3556 10.3277 19.4409C10.4138 19.5262 10.5305 19.5741 10.6522 19.5741H13.6886C13.8103 19.5741 13.927 19.5262 14.0131 19.4409C14.0991 19.3556 14.1475 19.2399 14.1475 19.1193C14.1475 18.9986 14.0991 18.8829 14.0131 18.7976C13.927 18.7123 13.8103 18.6644 13.6886 18.6644Z" fill="white"/>
<path d="M13.4272 22.1167C13.343 22.1431 13.2542 22.1526 13.1662 22.1446C13.0782 22.1366 12.9926 22.1113 12.9146 22.07C12.8881 22.0567 12.8634 22.0401 12.8411 22.0206L12.4111 21.5438C12.1258 21.2274 11.7503 21.0532 11.3573 21.057C10.962 21.0595 10.5887 21.238 10.306 21.5595C10.266 21.6045 10.2354 21.6569 10.2159 21.7136C10.1964 21.7703 10.1884 21.8303 10.1924 21.8901C10.1964 21.95 10.2122 22.0084 10.2391 22.0621C10.2659 22.1158 10.3032 22.1637 10.3488 22.2031C10.3944 22.2425 10.4474 22.2726 10.5047 22.2916C10.562 22.3106 10.6226 22.3182 10.6829 22.3139C10.7432 22.3096 10.8021 22.2936 10.8561 22.2667C10.9101 22.2398 10.9583 22.2026 10.9978 22.1572C11.1066 22.0332 11.2329 21.9676 11.3631 21.9666C11.4919 21.9655 11.618 22.0293 11.727 22.1501L12.1569 22.6269C12.2463 22.7227 12.3512 22.803 12.4674 22.8644C12.6989 22.9911 12.9593 23.0571 13.2237 23.0562C13.3823 23.0561 13.5401 23.0331 13.6919 22.9877C13.8084 22.9529 13.9062 22.8736 13.9638 22.7673C14.0214 22.661 14.034 22.5364 13.9988 22.4209C13.9637 22.3054 13.8838 22.2085 13.7766 22.1514C13.6693 22.0944 13.5437 22.0819 13.4271 22.1167H13.4272Z" fill="white"/>
</g>
<defs>
<clipPath id="clip0_669_498">
<rect width="18.6667" height="18.6667" fill="white" transform="translate(8 6.66667)"/>
</clipPath>
</defs>
</svg>
