<svg width="24" height="24" viewBox="0 0 24 24" fill="none" xmlns="http://www.w3.org/2000/svg">
<g clip-path="url(#clip0_218_10403)">
<circle cx="12" cy="12" r="12" fill="#F180B9"/>
<path d="M10.6475 9.41113L11.9991 10.7633L15.7173 7.04454C15.8256 6.93616 15.9542 6.85018 16.0958 6.79152C16.2374 6.73286 16.3892 6.70267 16.5424 6.70267C16.6957 6.70267 16.8474 6.73286 16.989 6.79152C17.1306 6.85018 17.2592 6.93616 17.3675 7.04454L17.7799 7.45696L10.6475 14.5888C10.8589 15.0874 10.8904 15.6439 10.7364 16.163C10.5825 16.6822 10.2528 17.1316 9.80378 17.4344C9.3548 17.7371 8.81451 17.8742 8.2755 17.8223C7.73649 17.7704 7.23234 17.5325 6.84943 17.1497C6.46653 16.7667 6.22873 16.2626 6.17678 15.7235C6.12483 15.1846 6.26197 14.6443 6.56469 14.1953C6.86741 13.7463 7.31687 13.4166 7.83604 13.2627C8.3552 13.1087 8.91174 13.1402 9.41028 13.3515L10.7624 12L9.41028 10.6484C8.91174 10.8598 8.3552 10.8912 7.83604 10.7373C7.31687 10.5833 6.86741 10.2536 6.56469 9.80463C6.26197 9.35566 6.12483 8.81536 6.17678 8.27636C6.22873 7.73734 6.46653 7.23319 6.84943 6.85029C7.23234 6.46739 7.73649 6.22959 8.2755 6.17764C8.81451 6.12568 9.3548 6.26282 9.80378 6.56555C10.2528 6.86827 10.5825 7.31773 10.7364 7.83689C10.8904 8.35606 10.8589 8.9126 10.6475 9.41113ZM8.49911 9.66663C8.80853 9.66663 9.10527 9.54372 9.32406 9.32492C9.54286 9.10613 9.66578 8.80938 9.66578 8.49997C9.66578 8.19054 9.54286 7.8938 9.32406 7.67501C9.10527 7.45622 8.80853 7.3333 8.49911 7.3333C8.18969 7.3333 7.89294 7.45622 7.67415 7.67501C7.45536 7.8938 7.33245 8.19054 7.33245 8.49997C7.33245 8.80938 7.45536 9.10613 7.67415 9.32492C7.89294 9.54372 8.18969 9.66663 8.49911 9.66663ZM8.49911 16.6667C8.80853 16.6667 9.10527 16.5437 9.32406 16.325C9.54286 16.1061 9.66578 15.8094 9.66578 15.5C9.66578 15.1906 9.54286 14.8938 9.32406 14.675C9.10527 14.4563 8.80853 14.3333 8.49911 14.3333C8.18969 14.3333 7.89294 14.4563 7.67415 14.675C7.45536 14.8938 7.33245 15.1906 7.33245 15.5C7.33245 15.8094 7.45536 16.1061 7.67415 16.325C7.89294 16.5437 8.18969 16.6667 8.49911 16.6667ZM14.0612 12.8242L17.7799 16.5435L17.3675 16.956C17.2592 17.0643 17.1306 17.1503 16.989 17.209C16.8474 17.2676 16.6957 17.2979 16.5424 17.2979C16.3892 17.2979 16.2374 17.2676 16.0958 17.209C15.9542 17.1503 15.8256 17.0643 15.7173 16.956L12.8239 14.062L14.0612 12.8242Z" fill="white"/>
</g>
<defs>
<clipPath id="clip0_218_10403">
<rect width="24" height="24" fill="white"/>
</clipPath>
</defs>
</svg>
