<svg width="24" height="24" viewBox="0 0 24 24" fill="none" xmlns="http://www.w3.org/2000/svg">
<g clip-path="url(#clip0_218_10407)">
<circle cx="12" cy="12" r="12" fill="#53AAF2"/>
<path d="M7.09776 12.1705C6.58511 12.1144 6.09032 11.9426 5.64783 11.6668C5.64783 10.3401 6.28398 7.7541 9.26609 8.94124C9.52248 8.79798 9.80862 8.72042 10.0991 8.71586H13.0375C13.0375 7.01864 13.7813 5.71105 14.8943 5.26028C16.1666 4.74929 17.6095 5.02212 18.1249 5.80412L17.4888 6.43373L17.8703 8.84817C17.8853 8.93597 17.8738 9.02644 17.8374 9.10716C17.8011 9.18788 17.7416 9.25487 17.6673 9.29893L17.3435 9.41756C17.2609 9.46537 17.1648 9.48168 17.0719 9.4637C16.979 9.44571 16.895 9.39456 16.8343 9.31901L16.1981 8.3901C15.8227 8.4704 15.5943 9.10001 15.6705 9.87562C15.9671 11.5102 16.5284 13.0802 17.3304 14.5183C16.9296 14.7236 16.5289 14.9089 16.1342 15.075L15.4998 14.0137C15.139 13.4092 14.6386 12.9087 14.0443 12.5581C13.45 12.2074 12.7809 12.0179 12.0982 12.0067C11.4154 11.9955 10.7409 12.1631 10.1364 12.4942C9.53186 12.8252 9.01661 13.3091 8.63782 13.9015L7.95092 15.0622C7.55753 14.8913 7.1694 14.7075 6.78713 14.511C7.41092 13.1352 7.90898 11.7011 8.27468 10.2278C8.30065 10.1255 8.3349 10.0257 8.37706 9.92946C7.37252 10.0417 7.13014 11.1887 7.09951 12.1705H7.09776ZM18.9518 15.387C18.8814 15.2593 18.8049 15.1354 18.7226 15.0156C18.6658 14.9167 18.5738 14.845 18.4667 14.8163C18.3595 14.7876 18.2458 14.8042 18.1503 14.8623C16.2766 15.9833 14.1668 16.6054 12.0076 16.6736C9.83824 16.5689 7.72665 15.9109 5.85784 14.7574C5.76215 14.7007 5.64914 14.6848 5.54247 14.7131C5.4358 14.7413 5.34374 14.8115 5.28557 14.9089C5.19632 15.0686 5.14556 15.221 5.06331 15.387C5.00212 15.4973 4.98443 15.6281 5.01398 15.7517C5.04354 15.8753 5.11802 15.9821 5.22169 16.0495C7.26516 17.3463 9.61554 18.0217 12.0076 17.9995C14.4029 18.0097 16.7533 17.3207 18.7926 16.0103C18.8868 15.9439 18.9549 15.8443 18.9841 15.7297C19.0134 15.6152 19.0019 15.4935 18.9518 15.387Z" fill="white"/>
</g>
<defs>
<clipPath id="clip0_218_10407">
<rect width="24" height="24" fill="white"/>
</clipPath>
</defs>
</svg>
