<svg width="24" height="24" viewBox="0 0 24 24" fill="none" xmlns="http://www.w3.org/2000/svg">
<g clip-path="url(#clip0_218_10398)">
<circle cx="12" cy="12" r="12" fill="#009999"/>
<path d="M8 6.19987C8 6.08997 8.13763 6 8.30585 6H15.6941C15.8633 6 16 6.08997 16 6.19987V6.79947C15.9995 6.82614 15.9912 6.85248 15.9756 6.877C15.9599 6.90151 15.9372 6.92371 15.9088 6.94232C15.8804 6.96094 15.8469 6.97562 15.81 6.98551C15.7732 6.99541 15.7338 7.00032 15.6941 6.99998H8.30585C8.26619 7.00032 8.22681 6.99541 8.18998 6.98551C8.15314 6.97562 8.11956 6.96094 8.09116 6.94232C8.06276 6.92371 8.04009 6.90151 8.02445 6.877C8.00881 6.85248 8.0005 6.82614 8 6.79947V6.19987Z" fill="white"/>
<path fill-rule="evenodd" clip-rule="evenodd" d="M8.42857 8H15.5714C16.3571 8 17 8.59998 17 9.33368V16.6663C17 17.4 16.3571 18 15.5714 18H8.42857C7.64286 18 7 17.4 7 16.6663V9.33453C7 8.60084 7.64286 8.00086 8.42857 8.00086V8ZM12.9375 13.8001H14.8125V12.0002H12.9375V10.2002H11.0625V12.0002H9.1875V13.8001H11.0625V15.6001H12.9375V13.8001Z" fill="white"/>
</g>
<defs>
<clipPath id="clip0_218_10398">
<rect width="24" height="24" fill="white"/>
</clipPath>
</defs>
</svg>
