<svg width="24" height="24" viewBox="0 0 24 24" fill="none" xmlns="http://www.w3.org/2000/svg">
<g clip-path="url(#clip0_218_10420)">
<circle cx="12" cy="12" r="12" fill="#4CC5A0"/>
<path d="M18.4161 9.71994L11.541 6.5L4.66602 9.63292L11.541 13.288L15.8923 11.0253V14.5933C15.8923 14.7674 16.0664 14.9414 16.2404 14.9414H16.7625C16.9366 14.9414 17.1106 14.7674 17.1106 14.5933V10.4161L18.4161 9.71994Z" fill="white"/>
<path d="M8.4082 12.9398V16.0727C8.4082 16.0727 10.7579 17.4652 11.5411 17.4652C12.3243 17.4652 14.6741 16.0727 14.6741 16.0727V12.9398C13.6297 13.462 12.5854 13.9842 11.5411 14.4193C10.4968 13.9842 9.45251 13.462 8.4082 12.9398Z" fill="white"/>
</g>
<defs>
<clipPath id="clip0_218_10420">
<rect width="24" height="24" fill="white"/>
</clipPath>
</defs>
</svg>
