<svg width="24" height="24" viewBox="0 0 24 24" fill="none" xmlns="http://www.w3.org/2000/svg">
<g clip-path="url(#clip0_218_10390)">
<circle cx="12" cy="12" r="12" fill="#F7C74C"/>
<path d="M17.25 6.81476V17.1851H16.0834V13.037H14.3333V9.40734C14.3333 8.71974 14.6406 8.06031 15.1876 7.57411C15.7346 7.0879 16.4764 6.81476 17.25 6.81476ZM10.25 12.9851V17.1851H9.08333V12.9851C8.42464 12.8654 7.83266 12.5472 7.4075 12.0842C6.98234 11.6213 6.75008 11.042 6.75 10.4444V7.33327H7.91667V10.9629H9.08333V7.33327H10.25V10.9629H11.4167V7.33327H12.5833V10.4444C12.5833 11.042 12.351 11.6213 11.9258 12.0842C11.5007 12.5472 10.9087 12.8654 10.25 12.9851Z" fill="white"/>
</g>
<defs>
<clipPath id="clip0_218_10390">
<rect width="24" height="24" fill="white"/>
</clipPath>
</defs>
</svg>
