<svg width="24" height="24" viewBox="0 0 24 24" fill="none" xmlns="http://www.w3.org/2000/svg">
<g clip-path="url(#clip0_218_10416)">
<circle cx="12" cy="12" r="12" fill="#F790A0"/>
<path d="M14.3327 6.16669C14.6547 6.16669 14.9161 6.42802 14.9161 6.75002V8.50002H17.2494C17.5713 8.50002 17.8327 8.76135 17.8327 9.08335V17.2501C17.8327 17.572 17.5713 17.8334 17.2494 17.8334H6.74935C6.42735 17.8334 6.16602 17.572 6.16602 17.2501V9.08335C6.16602 8.76135 6.42735 8.50002 6.74935 8.50002H9.08268V6.75002C9.08268 6.42802 9.34402 6.16669 9.66602 6.16669H14.3327ZM12.5827 10.8334H11.416V12.5834H9.66602V13.7501H11.4154L11.416 15.5H12.5827L12.5821 13.7501H14.3327V12.5834H12.5827V10.8334ZM13.7494 7.33335H10.2493V8.50002H13.7494V7.33335Z" fill="white"/>
</g>
<defs>
<clipPath id="clip0_218_10416">
<rect width="24" height="24" fill="white"/>
</clipPath>
</defs>
</svg>
