<svg width="24" height="24" viewBox="0 0 24 24" fill="none" xmlns="http://www.w3.org/2000/svg">
<g clip-path="url(#clip0_218_10394)">
<circle cx="12" cy="12" r="12" fill="#AE8AF7"/>
<path d="M7.96769 8.75391L6.16602 6.95279L6.95213 6.16669L8.75324 7.96836H17.221C17.3076 7.96835 17.393 7.98858 17.4704 8.02744C17.5478 8.06631 17.615 8.12272 17.6667 8.19219C17.7184 8.26165 17.7531 8.34223 17.7681 8.42751C17.7832 8.51279 17.7781 8.6004 17.7532 8.68335L16.4199 13.1278C16.3856 13.2423 16.3153 13.3427 16.2194 13.4141C16.1235 13.4854 16.0072 13.5239 15.8877 13.5239H9.0788V14.635H15.1899V15.7462H8.52324C8.37589 15.7462 8.23458 15.6876 8.1304 15.5834C8.02621 15.4792 7.96769 15.3379 7.96769 15.1906V8.75391ZM8.80102 17.9684C8.58 17.9684 8.36804 17.8806 8.21176 17.7243C8.05548 17.568 7.96769 17.356 7.96769 17.135C7.96769 16.914 8.05548 16.7021 8.21176 16.5458C8.36804 16.3894 8.58 16.3017 8.80102 16.3017C9.02203 16.3017 9.23399 16.3894 9.39027 16.5458C9.54655 16.7021 9.63435 16.914 9.63435 17.135C9.63435 17.356 9.54655 17.568 9.39027 17.7243C9.23399 17.8806 9.02203 17.9684 8.80102 17.9684ZM15.4677 17.9684C15.2466 17.9684 15.0347 17.8806 14.8785 17.7243C14.7221 17.568 14.6344 17.356 14.6344 17.135C14.6344 16.914 14.7221 16.7021 14.8785 16.5458C15.0347 16.3894 15.2466 16.3017 15.4677 16.3017C15.6887 16.3017 15.9007 16.3894 16.0569 16.5458C16.2132 16.7021 16.301 16.914 16.301 17.135C16.301 17.356 16.2132 17.568 16.0569 17.7243C15.9007 17.8806 15.6887 17.9684 15.4677 17.9684Z" fill="white"/>
</g>
<defs>
<clipPath id="clip0_218_10394">
<rect width="24" height="24" fill="white"/>
</clipPath>
</defs>
</svg>
